<?xml version="1.0" standalone="no"?>
<!DOCTYPE svg PUBLIC "-//W3C//DTD SVG 20010904//EN"
 "http://www.w3.org/TR/2001/REC-SVG-20010904/DTD/svg10.dtd">
<svg version="1.0" xmlns="http://www.w3.org/2000/svg"
 width="94.000000pt" height="94.000000pt" viewBox="0 0 94.000000 94.000000"
 preserveAspectRatio="xMidYMid meet">

<g transform="translate(0.000000,94.000000) scale(0.100000,-0.100000)"
fill="#000000" stroke="none">
<path d="M215 806 l-40 -13 55 -13 c62 -15 145 -50 175 -74 19 -16 19 -16 -10
-9 -52 14 -112 7 -150 -17 -34 -21 -121 -137 -111 -148 3 -2 18 5 34 16 26 19
123 62 139 62 3 0 -1 -8 -9 -17 -48 -55 -60 -126 -32 -191 l16 -37 17 45 c33
92 99 168 134 154 20 -7 14 -54 -19 -141 -80 -212 -94 -255 -81 -250 24 9 7
-43 -20 -60 -13 -9 -48 -22 -76 -28 l-52 -12 38 -8 c50 -10 126 1 148 21 24
22 66 138 100 283 22 89 36 129 50 139 10 7 19 21 20 30 0 9 9 -1 20 -23 21
-44 25 -125 8 -157 -18 -33 10 -18 44 24 51 63 51 144 1 199 -18 20 -18 20 9
10 58 -22 105 -51 144 -89 23 -22 44 -38 47 -35 12 12 5 59 -13 100 -28 60
-85 95 -169 103 l-67 6 40 18 c60 26 144 46 197 46 59 0 67 12 26 42 -26 18
-46 23 -93 23 -85 -1 -140 -20 -191 -67 -24 -23 -46 -39 -47 -37 -1 2 -10 21
-20 42 -25 56 -68 77 -152 76 -38 -1 -88 -7 -110 -13z"/>
</g>
</svg>
